# Alias OBJ Model File
# Exported from SketchUp, (c) 2000-2012 Trimble Navigation Limited
# File units = inches

mtllib 4efa0d5e-4a03-4abe-8cdc-7d8b78e72467.mtl

g Mesh1 Model

usemtl Groundcover_Wood_Mix
v -26.297 0 -155.929
vt -1.46094 8.6627
vn 0 1 -0
v -26.297 0 -129.035
vt -1.46094 7.16862
v 29.8911 0 -129.035
vt 1.66062 7.16862
v 82.9977 0 -40.053
vt 4.61098 2.22516
v 82.9977 0 -88.0242
vt 4.61098 4.89023
v 0 0 -217.815
vt 0 12.1008
f 1/1/1 2/2/1 3/3/1 4/4/1 5/5/1 6/6/1 

vt 1.46094 0
vn 0 0 -1
v -26.297 12.875 -129.035
vt 1.46094 0.715278
vt -1.66062 0
f 2/7/2 7/8/2 3/9/2

vt -7.31597 0
vn -0.979859 0 0.199692
v 0 0 -0
vt 0 0
v 0 12.875 -0
vt 0 0.715278
vt -7.31597 0.715278
f 2/10/3 8/11/3 9/12/3 7/13/3 

vt 5.11982 -1.75302e-31
vn 0.434618 -4.3097e-16 0.900615
v 82.9977 12.875 -40.053
vt 5.11982 0.715278
f 4/14/4 10/15/4 9/12/4 8/11/4 

vt -0.45234 1.47845e-14
vn 0.858694 -2.89904e-15 -0.512488
vt 5.3046 1.47845e-14
v 53.258 12.875 -89.883
vt 2.77155 0.715278
vt -0.45234 0.715278
f 4/16/5 3/17/5 11/18/5 10/19/5 

usemtl Grass_Dark_Green
vt -0.224881 -2.18166
vn 0.203387 0.887604 -0.41327
vt 0.83772 -2.88646
vt 2.2381 -2.18166
f 11/20/6 3/21/6 7/22/6

vt -0.730472 3.25353
vn -2.12886e-17 1 5.42646e-18
vt 7.61364e-18 1.76161e-18
vt 2.30549 1.00991
vt 1.47939 2.26634
f 7/23/7 9/24/7 10/25/7 11/26/7 

usemtl Groundcover_Wood_Mix
vt -10.1946 7.04009e-15
vn -0.842474 1.0799e-15 0.538738
vt -1.63578 7.04009e-15
v 0 11.375 -217.815
vt -10.1946 0.631944
f 6/27/8 5/28/8 12/29/8

usemtl Grass_Dark_Green
v 82.9977 11.375 -182.323
vt 0.128476 5.04412
vn -0.0511462 0.991504 0.119603
vt -2.37897 5.04412
vt 1.1584 2.83922
f 13/30/9 12/31/9 5/32/9

vt 0 5.49207
vt 2.30549 4.59714
v 150.207 11.375 -143.169
vt 4.17242 3.60992
v 103.174 11.375 -267.241
vt 2.86595 6.73831
f 12/33/1 13/34/1 14/35/1 15/36/1 

usemtl Groundcover_Wood_Mix
vt -3.20683 -0.905143
vn 0.498533 0.138263 -0.855773
vt 1.11441 -0.905143
v 82.3496 20.5981 -181.21
vt 1.11441 -0.387782
v 149.559 20.5981 -142.057
vt -3.20683 -0.387782
f 14/37/10 13/38/10 16/39/10 17/40/10 

vt -10.1672 0.317691
vn -0.997575 -0.0690962 -0.00833491
vt -4.92859 -0.315767
v 82.3496 9.22306 -86.9117
vt -4.86648 0.197852
vt -10.1051 0.831311
f 13/41/11 5/42/11 18/43/11 16/44/11 

vt 6.6718 -0.0389129
vn 0.638407 -0.0478055 0.768213
vt 11.5016 0.593755
vt 11.4344 1.10673
vt 6.60461 0.474066
f 5/45/12 14/46/12 17/47/12 18/48/12 

v 150.207 0 -143.169
vt 11.4964 1.07524e-13
vn 0.63431 1.25649e-13 0.773079
vt 11.4964 0.631944
vt 6.66658 1.07524e-13
f 19/49/13 14/50/13 5/51/13

vt 4.47945 3.06016e-13
vn 0.935069 -2.88086e-14 -0.354465
v 103.174 0 -267.241
vt 11.851 3.06016e-13
vt 11.851 0.631944
vt 4.47945 0.631944
f 19/52/14 20/53/14 15/54/14 14/55/14 

vt -11.5837 0
vn -0.432039 0 -0.901855
vt -5.22804 0
vt -5.22804 0.631944
vt -11.5837 0.631944
f 20/56/15 6/57/15 12/58/15 15/59/15 

usemtl Grass_Dark_Green
vt -0.557205 5.01706
vn -0.0695971 0.990396 0.119469
vt 0.761317 2.94266
vt 1.60342 5.01706
f 16/60/16 18/61/16 17/62/16

