# Alias OBJ Model File
# Exported from SketchUp, (c) 2000-2012 Trimble Navigation Limited
# File units = inches

mtllib 5fffb56a-bcf9-4776-b94d-0db69c1db60d.mtl

g Mesh1 Model

usemtl Groundcover_Wood_Mix
v -26.297 0 -129.035
vt -7.31597 0
vn -0.979859 0 0.199692
v 0 0 -0
vt 0 0
v 0 12.875 -0
vt 0 0.715278
v -26.297 12.875 -129.035
vt -7.31597 0.715278
f 1/1/1 2/2/1 3/3/1 4/4/1 

v 82.9977 0 -40.053
vt 5.11982 -1.75302e-31
vn 0.434618 -4.3097e-16 0.900615
v 82.9977 12.875 -40.053
vt 5.11982 0.715278
f 5/5/2 6/6/2 3/3/2 2/2/2 

vt -0.45234 1.47845e-14
vn 0.858694 -2.89904e-15 -0.512488
v 29.8911 0 -129.035
vt 5.3046 1.47845e-14
v 53.258 12.875 -89.883
vt 2.77155 0.715278
vt -0.45234 0.715278
f 5/7/3 7/8/3 8/9/3 6/10/3 

v -26.297 0 -155.929
vt -1.46094 8.6627
vn 0 1 -0
vt -1.46094 7.16862
vt 1.66062 7.16862
vt 4.61098 2.22516
v 82.9977 0 -88.0242
vt 4.61098 4.89023
v 0 0 -217.815
vt 0 12.1008
f 9/11/4 1/12/4 7/13/4 5/14/4 10/15/4 11/16/4 

vt 1.46094 0
vn 0 0 -1
vt 1.46094 0.715278
vt -1.66062 0
f 1/17/5 4/18/5 7/19/5

usemtl Grass_Dark_Green
vt -0.224881 -2.18166
vn 0.203387 0.887604 -0.41327
vt 0.83772 -2.88646
vt 2.2381 -2.18166
f 8/20/6 7/21/6 4/22/6

vt -0.730472 3.25353
vn -2.12886e-17 1 5.42646e-18
vt 7.61364e-18 1.76161e-18
vt 2.30549 1.00991
vt 1.47939 2.26634
f 4/23/7 3/24/7 6/25/7 8/26/7 

usemtl Groundcover_Wood_Mix
vt -10.1946 7.04009e-15
vn -0.842474 1.0799e-15 0.538738
vt -1.63578 7.04009e-15
v 0 11.375 -217.815
vt -10.1946 0.631944
f 11/27/8 10/28/8 12/29/8

usemtl Grass_Dark_Green
v 82.9977 11.375 -182.323
vt 0.128476 5.04412
vn -0.0511462 0.991504 0.119603
vt -2.37897 5.04412
vt 1.1584 2.83922
f 13/30/9 12/31/9 10/32/9

vt 0 5.49207
vt 2.30549 4.59714
v 150.207 11.375 -143.169
vt 4.17242 3.60992
v 103.174 11.375 -267.241
vt 2.86595 6.73831
f 12/33/4 13/34/4 14/35/4 15/36/4 

usemtl Groundcover_Wood_Mix
vt -3.20683 -0.905143
vn 0.498533 0.138263 -0.855773
vt 1.11441 -0.905143
v 82.3496 20.5981 -181.21
vt 1.11441 -0.387782
v 149.559 20.5981 -142.057
vt -3.20683 -0.387782
f 14/37/10 13/38/10 16/39/10 17/40/10 

vt -10.1672 0.317691
vn -0.997575 -0.0690962 -0.00833491
vt -4.92859 -0.315767
v 82.3496 9.22306 -86.9117
vt -4.86648 0.197852
vt -10.1051 0.831311
f 13/41/11 10/42/11 18/43/11 16/44/11 

vt 6.6718 -0.0389129
vn 0.638407 -0.0478055 0.768213
vt 11.5016 0.593755
vt 11.4344 1.10673
vt 6.60461 0.474066
f 10/45/12 14/46/12 17/47/12 18/48/12 

v 150.207 0 -143.169
vt 11.4964 1.07524e-13
vn 0.63431 1.25649e-13 0.773079
vt 11.4964 0.631944
vt 6.66658 1.07524e-13
f 19/49/13 14/50/13 10/51/13

vt 4.47945 3.06016e-13
vn 0.935069 -2.88086e-14 -0.354465
v 103.174 0 -267.241
vt 11.851 3.06016e-13
vt 11.851 0.631944
vt 4.47945 0.631944
f 19/52/14 20/53/14 15/54/14 14/55/14 

vt 0.129703 0
vn 0.367753 0 -0.929924
v 14.4047 0 -302.347
vt 5.43297 0
v 14.4047 11.375 -302.347
vt 5.43297 0.631944
vt 0.129703 0.631944
f 20/56/15 21/57/15 22/58/15 15/59/15 

usemtl FrontColor
vt -14.4047 302.347
vn 0 -1 -0
vt -103.174 267.241
vt 0 217.815
f 21/60/16 20/61/16 11/62/16

usemtl Groundcover_Wood_Mix
vt -16.6928 0
vn -0.98579 0 -0.167985
vt -11.9289 0
vt -11.9289 0.631944
vt -16.6928 0.631944
f 21/63/17 11/64/17 12/65/17 22/66/17 

usemtl Grass_Dark_Green
v 24.3803 11.375 -254.6
vt 0.67723 6.41956
vt 0.400131 7.62347
f 12/33/4 23/67/4 22/68/4

v 44.0178 11.375 -247.706
vt 1.22272 6.24573
f 23/67/4 12/33/4 24/69/4

f 24/69/4 12/33/4 15/36/4

v 59.807 11.375 -261.265
vt 1.66131 6.58763
f 24/69/4 15/36/4 25/70/4

v 55.9587 11.375 -281.719
vt 1.55441 7.10335
f 15/36/4 26/71/4 25/70/4

v 36.3211 11.375 -288.613
vt 1.00892 7.27718
f 15/36/4 27/72/4 26/71/4

f 22/68/4 27/72/4 15/36/4

v 20.532 11.375 -275.053
vt 0.570332 6.93529
f 27/72/4 22/68/4 28/73/4

f 22/68/4 23/67/4 28/73/4

usemtl Groundcover_Rock_Crushed_2_inch
vt -11.1048 0.473958
vn -0.982756 0 0.184905
vt -10.2376 0.473958
v 24.3803 58.375 -254.6
vt -10.2376 2.43229
v 20.532 58.375 -275.053
vt -11.1048 2.43229
f 28/74/18 23/75/18 29/76/18 30/77/18 

vt -2.55547 0.473958
vn -0.331246 0 0.943544
vt -1.68828 0.473958
v 44.0178 58.375 -247.706
vt -1.68828 2.43229
vt -2.55547 2.43229
f 23/78/19 24/79/19 31/80/19 29/81/19 

vt 8.11569 0.473958
vn 0.65151 0 0.75864
vt 8.98288 0.473958
v 59.807 58.375 -261.265
vt 8.98288 2.43229
vt 8.11569 2.43229
f 24/82/20 25/83/20 32/84/20 31/85/20 

vt 10.2376 0.473958
vn 0.982756 0 -0.184905
vt 11.1048 0.473958
v 55.9587 58.375 -281.719
vt 11.1048 2.43229
vt 10.2376 2.43229
f 25/86/21 26/87/21 33/88/21 32/89/21 

vt 1.68828 0.473958
vn 0.331246 0 -0.943544
vt 2.55547 0.473958
v 36.3211 58.375 -288.613
vt 2.55547 2.43229
vt 1.68828 2.43229
f 26/90/22 27/91/22 34/92/22 33/93/22 

vt -8.98288 0.473958
vn -0.65151 0 -0.75864
vt -8.11569 0.473958
vt -8.11569 2.43229
vt -8.98288 2.43229
f 27/94/23 28/95/23 30/96/23 34/97/23 

vt 1.83408 10.3211
vt 2.49196 10.8861
vt 2.33161 11.7383
vt 1.51338 12.0255
vt 0.855498 11.4606
vt 1.01585 10.6083
f 31/98/4 32/99/4 33/100/4 34/101/4 30/102/4 29/103/4 

usemtl Grass_Dark_Green
vt -0.557205 5.01706
vn -0.0695971 0.990396 0.119469
vt 0.761317 2.94266
vt 1.60342 5.01706
f 16/104/24 18/105/24 17/106/24

